<svg width="644" height="551" viewBox="0 0 644 551" fill="none" xmlns="http://www.w3.org/2000/svg">
<path opacity="0.7" d="M144.418 172.505L357.879 508.1L572.193 172.505H144.418Z" stroke="#2B2B39" stroke-linecap="round" stroke-linejoin="round" stroke-dasharray="3 3"/>
<circle cx="541.635" cy="179.27" r="96.4193" fill="white"/>
<circle cx="541.635" cy="179.27" r="95.4193" stroke="#FFAF2E" stroke-opacity="0.6" stroke-width="2"/>
<mask id="mask0_5_1388" style="mask-type:alpha" maskUnits="userSpaceOnUse" x="366" y="48" width="278" height="272">
<path d="M638.055 179.27C638.055 126.019 594.887 48.6372 541.636 48.6372C492.163 48.6372 451.393 115.427 445.857 167.606C396.732 161.386 330.914 137.281 390.787 182.38C414.538 200.271 429.155 226.184 457.671 226.702C474.229 255.95 505.627 275.689 541.636 275.689C568.135 275.689 592.137 264.999 609.566 247.696L604.991 290.871C604.991 374.072 660.847 258.893 638.055 179.27Z" fill="#C4C4C4"/>
</mask>
<g mask="url(#mask0_5_1388)">
<path d="M537.097 127.138C511.151 147.835 513.796 191.837 512.229 215.788C511.128 232.543 507.68 256.554 505.49 270.296L554.103 277.454V193.213C554.103 165.133 556.057 130.623 563.717 123.189C558.382 122.598 553.67 122.75 550.441 123.189C547.88 123.169 544.673 123.601 541.163 125.021C539.619 125.937 538.484 126.347 537.097 127.138Z" fill="white"/>
<path opacity="0.5" d="M537.097 127.138C511.151 147.835 513.796 191.836 512.229 215.787C511.128 232.542 507.68 256.554 505.49 270.295C523.977 277.098 532.079 278.719 554.103 277.453V193.213C554.103 171.506 555.271 145.956 559.342 132.043C554.962 139.064 548.891 172.953 549.817 193.213C550.744 213.473 550.126 252.941 544.258 263.932C538.383 274.923 508.107 266.679 510.887 258.131C513.667 249.582 513.667 221.8 516.138 189.744C518.115 164.099 530.936 137.321 537.097 127.138Z" fill="#FFB83B"/>
<path d="M544.26 263.932C538.385 274.923 508.109 266.68 510.889 258.131C517.993 269.122 534.987 265.764 537.767 261.49C540.547 257.216 544.877 246.53 544.877 228.517C544.877 214.107 548.584 186.488 550.437 174.48C549.831 181.189 549.567 187.705 549.819 193.213C550.746 213.473 550.128 252.941 544.26 263.932Z" fill="#FFF9EF"/>
<path d="M516.137 189.745C517.687 169.706 525.847 148.976 532.283 136.012C528.65 143.848 521.456 164.1 521.703 182.417C521.95 200.735 516.424 223.633 513.627 232.792C514.284 220.764 514.902 205.79 516.137 189.745Z" fill="#FFF9EF"/>
<path d="M500.689 303.621L489.873 302.095C491.524 290.795 502.975 235.599 507.721 199.27C508.754 191.344 509.827 183.052 510.916 174.493C515.123 141.343 529.685 131.57 541.159 125.021C515.213 145.718 513.792 191.837 512.225 215.788C511.124 232.543 507.676 256.554 505.486 270.296C505.171 272.268 500.942 302.124 500.689 303.621Z" fill="#FFAF2E"/>
<path d="M507.721 199.269C508.754 191.344 509.827 183.052 510.916 174.493C510.596 184.869 509.827 201.918 507.721 219.358C503.761 252.162 499.454 281.944 489.873 302.094C491.524 290.794 502.975 235.599 507.721 199.269Z" fill="#F3A00D"/>
<path d="M604.502 302.705C599.251 279.808 591.523 189.745 591.523 189.745C591.523 189.745 597.752 157.963 587.508 142.423C580.96 132.483 563.718 123.189 563.718 123.189C556.058 130.622 554.103 165.133 554.103 193.213V277.453V306.674C567.425 309.421 589.67 310.643 604.502 302.705Z" fill="#FFAF2E"/>
<path d="M557.995 137.538C555.007 152.043 554.103 174.116 554.103 193.213V265.153C555.401 254.57 557.72 226.807 556.614 200.43C555.507 174.052 557.074 147.511 557.995 137.538Z" fill="#F9A319"/>
<path d="M604.502 302.705C599.251 279.808 591.523 189.744 591.523 189.744C591.523 189.744 597.752 157.963 587.508 142.423C587.508 158.909 579.477 181.196 584.11 203.483C590.344 233.454 595.539 260.879 589.67 281.639C584.975 298.248 563.999 305.249 554.103 306.674C567.425 309.421 589.67 310.643 604.502 302.705Z" fill="#F9A319"/>
<path d="M638.793 212.947C640.646 194.019 622.113 166.237 601.103 145.476C591.758 136.243 572.68 125.327 563.716 123.189L591.522 189.745C591.522 189.745 600.159 199.27 611.15 215.788C614.553 208.355 628.908 203.483 638.793 212.947Z" fill="#FFAF2E"/>
<path d="M638.794 212.947C640.647 194.018 622.108 166.236 601.104 145.476C596.224 140.655 588.692 135.376 581.33 131.127C583.7 135.197 588.805 144.499 590.287 149.139C592.141 154.94 631.998 178.127 628.6 207.902C632.122 208.405 635.677 209.964 638.794 212.947Z" fill="#F9A319"/>
<path d="M607.844 207.899C608.428 202.135 613.92 198.773 617.812 197.812C626.562 195.651 635.307 198.292 639.681 204.777C643.5 210.432 639.199 218.707 635.307 221.829C636.037 211.021 631.909 207.179 622.912 208.62C613.92 210.061 611.247 215.585 610.764 220.388C608.574 218.707 607.114 215.104 607.844 207.899Z" fill="#F9A319"/>
<path d="M622.911 208.62C613.919 210.061 611.246 215.585 610.757 220.388C611.572 230.395 613.043 253.916 612.459 267.942C611.734 285.474 610.757 291.478 607.601 299.163C604.439 306.849 608.618 314.832 614.694 313.39C620.771 311.949 625.73 304.927 624.275 299.163C622.815 293.399 624.275 287.635 626.701 283.552C629.133 279.469 635.305 244.405 635.305 221.829C636.035 211.021 631.902 207.179 622.911 208.62Z" fill="#FFD0B7"/>
<path d="M510.919 174.493C515.126 141.343 529.688 131.57 541.162 125.021C531.57 130.128 509.942 136.012 494.166 163.757C480.766 187.322 470.584 193.528 466.4 194.629C471.455 199.309 480.21 213.382 479.373 222.411C484.815 218.447 500.411 205.143 507.723 199.27C508.757 191.344 509.83 183.052 510.919 174.493Z" fill="#FFAF2E"/>
<path d="M507.722 199.269C508.755 191.344 509.828 183.052 510.917 174.493C507.935 189.466 496.675 198.293 490.497 200.43C485.549 202.139 480.573 211.522 478.709 216C479.287 218.275 479.551 220.461 479.371 222.411C484.813 218.447 500.409 205.143 507.722 199.269Z" fill="#F9A319"/>
<path d="M474.629 209.303C471.17 198.615 466.093 195.291 463.925 194.935C464.65 194.222 466.57 192.576 468.951 191.935C471.922 191.133 480.307 191.935 484.093 198.081C487.299 203.285 490.854 211.708 484.093 219.991C478.684 226.618 467.059 225.959 461.92 224.801C467.598 224.089 477.746 218.923 474.629 209.303Z" fill="#F9A319"/>
<path d="M461.919 224.801C467.597 224.089 477.745 218.923 474.628 209.303C472.14 201.616 468.871 196.156 463.924 194.934C462.755 195.365 460.459 196.317 451.372 192.469C440.016 187.66 402.97 170.825 400.266 168.421C397.561 166.016 391.613 157.733 383.23 157.999C374.848 158.267 377.822 173.497 387.827 176.17C397.832 178.842 406.215 186.056 411.082 191.401C415.949 196.744 442.178 222.664 461.919 224.801Z" fill="#FFD0B7"/>
<path d="M540.902 125.033V108.459L563.715 97.5442V123.189C553.544 141.924 539.976 137.155 540.902 125.033Z" fill="#FFD0B7"/>
<path d="M543.425 107.253L563.716 97.5442V123.189C563.699 123.226 563.677 123.263 563.66 123.3C562.638 125.166 561.588 126.796 560.515 128.208C556.741 122.593 546.761 113.879 540.903 109.526V108.666L543.425 107.253Z" fill="url(#paint0_linear_5_1388)"/>
<path d="M529.58 66.6798C529.58 76.4072 534.516 77.5904 538.15 77.0771L560.367 100.952C560.626 101.466 563.114 103.582 563.114 108.577C563.114 113.642 567.146 103.13 570.134 100.952C576.323 96.4443 580.529 96.3105 582.489 88.8757C584.174 82.4935 581.798 77.9756 579.85 77.0771C578.682 76.5637 577.435 75.4599 575.565 75.1519C573.694 74.8433 573.223 71.6861 573.223 70.1455C573.093 68.9907 572.588 67.384 569.606 65.5243C567.753 64.3695 562.962 63.8556 561.142 65.5243C559.974 66.1664 557.323 66.8341 556.077 64.3695C554.83 61.9049 552.179 62.8289 551.011 63.5986C547.585 64.8306 539.638 61.2117 536.549 51.7473C532.843 56.6321 529.58 59.9902 529.58 66.6798Z" fill="#2B2B39"/>
<path d="M579.851 77.0773C578.683 76.5634 577.436 75.4596 575.566 75.1516C585.203 82.2385 577.436 93.5931 571.258 96.6455C566.316 99.0873 563.772 105.617 563.115 108.577C563.115 113.642 567.147 103.13 570.135 100.952C576.324 96.444 580.53 96.3103 582.49 88.8759C584.175 82.4938 581.8 77.9753 579.851 77.0773Z" fill="#13131C"/>
<path d="M551.013 63.5986C547.587 64.8306 539.641 61.2112 536.552 51.7473C536.608 57.4402 539.416 68.3969 550.199 66.6798C551.884 66.122 553.849 65.0121 556.096 67.232C558.342 69.4518 564.026 64.3689 569.608 65.5243C567.755 64.3689 562.964 63.855 561.145 65.5243C559.977 66.1659 557.326 66.8335 556.079 64.3689C554.832 61.9043 552.187 62.8283 551.013 63.5986Z" fill="#13131C"/>
<path d="M549.458 109.424C558.5 106.651 562.055 100.31 562.707 97.4867C562.971 96.3313 563.616 93.1225 563.487 91.7106C562.549 88.938 559.719 92.8655 558.421 95.1764C556.686 98.257 556.372 87.4746 558.421 84.7791C561.224 81.0819 556.86 80.103 554.911 79.003C554.002 78.4891 551.486 77.6167 548.678 78.2327C545.869 78.8487 544.392 77.2055 543.999 76.307C542.96 74.6388 540.259 72.3024 537.765 76.307C531.84 85.2414 532.958 96.9734 534.261 101.723C535.558 105.445 540.416 112.197 549.458 109.424Z" fill="#FFD0B7"/>
</g>
<g filter="url(#filter0_d_5_1388)">
<circle cx="155.659" cy="172.659" r="97.659" fill="white"/>
<circle cx="155.659" cy="172.659" r="96.659" stroke="#217BF4" stroke-opacity="0.6" stroke-width="2"/>
</g>
<mask id="mask1_5_1388" style="mask-type:alpha" maskUnits="userSpaceOnUse" x="58" y="48" width="220" height="246">
<path d="M58 173.086C58 119.151 101.723 48.7238 155.659 48.7238C285.668 45.0616 282.056 158.082 274.681 215.049H243.868C228.172 247.985 194.574 270.745 155.659 270.745C142.708 270.745 130.346 268.225 119.037 263.647C118.269 263.336 117.506 263.016 116.748 262.686C114.205 268.933 109.271 283.411 109.881 291.345C97.674 301.264 67.7536 282.037 70.2006 220.39C62.4267 206.376 58 190.248 58 173.086Z" fill="#C4C4C4"/>
</mask>
<g mask="url(#mask1_5_1388)">
<path d="M267.623 192.704C261.649 194.515 254.24 197.074 248.742 195.739C244.335 194.668 244.666 193.276 244.168 190.356C245.565 187.987 251.469 183.432 262.899 181.108C277.185 178.204 278.128 189.518 267.623 192.704Z" fill="#FEBE9D"/>
<path d="M202.666 150.023C200.906 145.749 196.068 145.037 193.869 145.215C177.845 151.626 187.585 197.835 191.355 203.979C195.125 210.122 199.524 212.526 203.923 214.396C208.321 216.265 217.119 215.197 219.318 213.862C221.518 212.526 222.146 211.19 224.659 210.923C227.173 210.656 231.258 209.855 232.828 208.252C234.399 206.65 235.656 205.047 239.427 205.047C243.197 205.047 246.339 202.376 247.595 200.774C248.852 199.171 249.795 198.904 251.994 198.369C254.194 197.835 256.393 197.835 257.021 195.164C257.65 192.493 257.964 187.151 257.65 184.48C257.335 181.809 257.335 181.809 255.764 182.076C254.194 182.343 250.109 184.48 248.852 184.48C247.595 184.48 245.396 184.213 243.197 185.014C240.997 185.816 233.771 188.754 229.058 190.089C224.345 191.425 217.433 191.692 218.061 189.822C218.69 187.953 220.889 182.611 216.49 182.611C212.092 182.611 212.092 179.672 210.207 173.529C208.321 167.385 204.865 155.365 202.666 150.023Z" fill="#217BF4"/>
<path d="M249.168 196.234C250.529 196.145 253.629 195.593 255.137 194.097M250.424 187.42C251.367 186.618 253.818 185.015 256.08 185.015L250.424 187.42ZM252.624 188.755L255.137 187.687L252.624 188.755ZM249.482 192.495C250.948 192.316 254.257 191.64 255.766 190.358L249.482 192.495Z" stroke="#2068D9" stroke-width="1.07894"/>
<path d="M250.02 198.923C249.446 196.793 248.874 193.468 249.481 190.891C248.852 192.76 247.03 197.141 244.768 199.705C241.94 202.911 238.484 202.643 237.856 199.972C237.227 197.301 233.457 198.904 232.2 202.109C230.944 205.314 228.116 209.321 223.403 209.588C218.988 209.838 216.779 210.791 215.484 211.35C215.397 211.388 215.313 211.424 215.234 211.458C213.977 211.992 214.291 209.855 215.548 208.52C216.805 207.184 218.376 203.712 218.061 201.842C216.491 204.78 213.349 208.787 208.322 210.122C203.294 211.458 200.467 208.253 204.237 205.314C208.007 202.376 210.835 199.705 211.777 197.301C212.134 196.393 211.637 196.705 210.644 197.33C209.01 198.358 206.031 200.233 203.294 198.904C198.896 196.767 199.524 190.624 202.98 189.555C204.084 189.214 205.734 189.118 207.509 189.014C211.289 188.795 215.635 188.542 216.491 185.816C214.606 186.884 203.609 188.487 203.294 181.809C202.98 175.131 202.352 170.591 200.781 166.851C200.259 165.609 200.014 163.984 199.76 162.289C199.247 158.881 198.691 155.19 195.754 153.763C194.915 153.356 191.447 153.511 186.709 154.333C181.829 169.967 188.412 199.183 191.355 203.979C195.125 210.123 199.524 212.527 203.923 214.396C208.321 216.266 217.119 215.198 219.318 213.862C220.037 213.426 220.589 212.989 221.092 212.59C222.13 211.768 222.968 211.104 224.659 210.924C227.173 210.657 231.258 209.856 232.828 208.253C232.941 208.138 233.052 208.023 233.163 207.908C234.593 206.428 235.927 205.048 239.427 205.048C243.197 205.048 246.339 202.377 247.595 200.774C248.396 199.753 249.069 199.274 250.02 198.923Z" fill="#1771EA"/>
<path d="M194.4 208.054C195.962 206.319 198.614 203.881 201.095 203.177C204.866 202.109 202.98 201.575 199.838 202.643C196.697 203.711 196.068 202.91 195.754 199.438C195.44 195.965 196.697 189.822 198.582 185.548C200.467 181.274 202.98 167.919 197.639 162.844C195.182 160.51 190 160.775 185.149 163.172C183.936 179.085 188.906 199.987 191.355 203.978C192.332 205.569 193.35 206.909 194.4 208.054Z" fill="#2068D9"/>
<path d="M246.967 196.501C249.732 193.296 249.376 187.508 248.852 185.015C249.69 187.152 250.863 192.174 248.852 195.165C246.339 198.905 246.339 197.302 246.967 196.501Z" fill="#3881F2"/>
<path d="M171.249 273.693C180.548 270.061 192.928 271.824 197.955 273.159C198.583 273.319 199.212 273.159 200.468 269.42C201.725 265.681 200.783 256.332 200.468 255.531C200.154 254.729 200.154 254.195 200.468 252.86C202.039 244.045 196.07 222.944 193.556 211.191C191.042 199.439 194.499 188.487 197.955 180.474C201.411 172.461 198.583 162.044 197.64 151.36C196.698 140.676 186.016 139.874 171.563 136.936C157.11 133.998 138.572 133.998 130.403 151.627C122.234 169.256 129.775 192.227 130.403 205.315C131.031 218.403 124.748 229.622 120.663 241.107C116.579 252.593 117.522 261.14 116.264 268.619C115.259 274.602 117.312 277.166 118.464 277.7C118.569 279.036 118.778 282.615 118.778 286.248C118.778 290.788 120.663 293.192 125.376 292.925C130.089 292.658 137.63 289.987 144.228 285.713C150.826 281.44 159.623 278.234 171.249 273.693Z" fill="#217BF4"/>
<path d="M171.563 223.211C163.017 229.621 152.502 228.374 148.313 226.95C148.313 228.107 150.324 231.01 158.367 233.361C168.421 236.299 175.333 229.621 178.161 224.279C180.423 220.005 185.387 213.951 187.587 211.458C185.806 212.704 180.109 216.8 171.563 223.211Z" fill="#3881F2"/>
<path d="M197.955 273.159C192.928 271.824 180.548 270.061 171.248 273.693C169.972 274.191 168.73 274.674 167.521 275.143C157.718 278.95 150.102 281.909 144.228 285.713C137.63 289.987 130.089 292.658 125.376 292.925C120.663 293.192 118.778 290.788 118.778 286.247C118.778 282.615 118.569 279.036 118.464 277.7C117.312 277.166 115.259 274.601 116.264 268.618C116.668 266.221 116.844 263.713 117.034 261.033C117.434 255.356 117.888 248.91 120.663 241.107C121.608 238.45 122.671 235.807 123.739 233.152C127.285 224.33 130.886 215.375 130.403 205.314C130.237 201.846 129.585 197.682 128.868 193.107C126.881 180.424 124.4 164.583 130.403 151.626C130.506 151.404 130.611 151.185 130.717 150.968C143.068 141.127 155.317 136.937 165.585 135.951C167.628 136.203 169.632 136.543 171.563 136.936C173.109 137.25 174.613 137.54 176.067 137.821C181.694 138.906 186.564 139.845 190.252 141.494C190.884 142.102 191.361 142.725 191.671 143.346C196.07 152.16 186.958 162.31 179.732 167.385C172.505 172.46 174.076 174.596 182.245 172.459C189.486 170.565 188.334 171.189 179.446 176.005C178.307 176.623 177.04 177.309 175.647 178.068C163.394 184.746 177.218 182.074 187.272 179.937C197.326 177.801 195.441 182.876 193.242 185.012C192.321 185.907 191.289 186.427 190.379 186.887C189.115 187.524 188.083 188.044 187.901 189.286C187.586 191.423 185.387 193.827 182.559 194.895C182.336 194.98 182.109 195.064 181.878 195.149C179.196 196.146 176.127 197.285 174.39 200.237C172.505 203.442 167.792 203.976 162.137 203.709C156.481 203.442 148.941 205.578 155.853 211.188C162.765 216.797 172.505 212.79 177.532 210.653C165.907 222.94 149.255 213.858 146.113 209.585C142.971 205.311 141.4 203.976 137.315 205.044C133.231 206.113 131.974 211.186 135.745 212.255C137.415 212.728 139.148 212.52 140.559 212.35C142.333 212.137 143.599 211.984 143.599 213.324C143.599 215.358 138.647 218.924 134.268 222.077C133.473 222.649 132.698 223.207 131.974 223.741C127.261 227.213 132.603 230.151 136.059 231.22C139.515 232.288 138.572 233.623 132.917 238.966C125.062 246.713 140.143 253.924 153.968 245.644C165.028 239.02 174.704 238.432 178.161 238.966C174.181 239.946 164.525 243.454 157.738 249.651C152.018 254.874 144.441 256.332 137.703 257.629C134.449 258.255 131.391 258.843 128.832 259.801C120.977 262.739 125.062 268.615 131.66 268.882C135.179 269.024 141.381 265.671 148.499 261.822C154.727 258.454 161.656 254.708 168.106 252.589C181.931 248.048 191.357 251.521 196.384 253.391C188.215 252.857 165.279 259.534 153.339 266.212C147.565 269.442 143.26 270.672 139.501 271.746C135.488 272.893 132.097 273.862 128.204 276.896C120.663 282.772 130.717 286.779 137.944 285.711C141.172 285.233 145.717 282.624 150.907 279.644C157.334 275.954 164.75 271.697 171.877 270.219C181.41 268.242 193.471 270.38 199.453 271.98C198.818 273.227 198.386 273.268 197.955 273.159Z" fill="#1771EA"/>
<path d="M129.997 200.834C131.297 199.261 133.17 196.872 134.174 195.165C135.744 192.495 136.687 191.426 138.886 193.296C141.086 195.165 144.542 194.899 146.427 192.762C146.39 192.909 146.353 193.054 146.316 193.198C145.422 196.706 144.801 199.141 151.14 198.371C153.458 198.089 156.784 198.467 160.001 198.833C165.942 199.507 171.512 200.14 169.677 196.501C166.849 190.892 164.964 177.27 170.62 172.462C175.144 168.616 178.998 163.202 180.36 160.976C182.873 155.901 182.622 146.019 161.508 147.087C153.127 147.511 143.986 145.753 135.432 144.055C133.501 146.112 131.8 148.611 130.403 151.626C124.399 164.583 126.881 180.424 128.868 193.107C129.298 195.851 129.704 198.447 129.997 200.834Z" fill="#2068D9"/>
<path d="M185.701 263.275C192.237 263.489 193.661 259.446 193.556 257.399C193.556 255.796 195.441 255.796 194.499 262.741C193.556 269.686 182.245 265.946 172.505 266.747C162.765 267.549 148.941 273.693 145.485 275.562C162.451 263.008 177.532 263.008 185.701 263.275Z" fill="#3881F2"/>
<path d="M192.925 254.461C193.658 257.221 194.999 264.184 194.496 269.953M123.489 279.302C123.489 281.26 123.677 285.979 124.431 289.185L123.489 279.302ZM131.029 275.829C131.762 278.233 133.166 283.575 132.915 285.712L131.029 275.829ZM136.056 273.158C136.58 275.028 137.627 280.21 137.627 285.979L136.056 273.158ZM142.34 273.692V280.637V273.692ZM147.367 269.953C147.996 271.556 149.064 275.509 148.31 278.5L147.367 269.953ZM152.394 267.015C152.918 268.796 153.966 273.052 153.966 275.829L152.394 267.015ZM158.678 265.412V272.357V265.412ZM164.648 261.94C165.172 264.255 165.905 269.739 164.648 273.158V261.94ZM169.047 260.604C169.78 262.118 171.12 265.946 170.618 269.152L169.047 260.604ZM176.587 259.269C176.587 261.584 176.587 266.427 176.587 267.282V259.269ZM180.672 257.132C180.986 259.269 181.614 264.451 181.614 268.083L180.672 257.132ZM189.155 260.337C189.26 262.474 189.281 267.229 188.527 269.152L189.155 260.337Z" stroke="#2068D9" stroke-width="1.07894"/>
<path d="M126.633 274.495C147.16 265.147 190.54 247.358 198.583 254.196" stroke="#3881F2" stroke-width="1.07894"/>
<path d="M116.264 268.618C115.259 274.601 117.312 277.165 118.464 277.699C118.514 278.336 118.588 279.484 118.651 280.904C121.521 278.589 127.89 273.639 130.403 272.357C125.691 273.693 119.467 276.364 118.651 270.487C117.836 264.611 120.977 258.468 122.862 255.263C124.748 252.057 127.002 242.441 124.619 230.956C123.264 234.353 121.868 237.718 120.663 241.106C116.579 252.591 117.522 261.139 116.264 268.618Z" fill="#2068D9"/>
<path d="M93.3214 282.051C93.7508 275.823 94.8431 268.249 98.0457 263.584C100.612 259.845 101.796 260.649 104.702 261.222C106.42 263.369 109.384 270.541 107.494 282.051C105.132 296.438 92.5663 293.002 93.3214 282.051Z" fill="#FEBE9D"/>
<path d="M91.7565 273.159C92.2592 272.091 92.5944 270.577 92.6991 269.954C93.6416 263.009 92.6991 256.332 92.6991 244.846C92.6991 233.361 95.5272 221.341 98.0404 217.067C100.554 212.794 99.9255 209.054 101.183 206.918C102.439 204.781 106.209 202.377 104.953 195.165C103.696 187.953 108.095 187.152 108.409 178.07C108.723 168.989 110.608 157.503 116.578 149.49C122.548 141.477 144.541 136.134 146.741 151.36C148.94 166.584 140.771 176.735 137.315 183.412C133.859 190.09 129.46 204.513 128.831 208.253C128.203 211.992 125.375 222.677 125.375 227.217C125.375 231.758 124.119 240.038 122.233 247.25C120.348 254.462 116.264 263.276 115.007 264.078C113.75 264.879 113.122 265.413 113.122 266.749C113.122 268.084 112.493 272.625 112.179 274.228C111.865 275.83 111.551 276.364 110.608 275.83C109.666 275.296 108.095 275.296 105.267 275.296C102.439 275.296 97.7263 275.83 94.8986 275.563C92.0709 275.296 91.1284 274.495 91.7565 273.159Z" fill="#217BF4"/>
<path d="M104.011 265.949C97.9791 267.231 94.7952 266.126 93.9573 265.414C95.7377 265.949 99.9693 266.382 103.383 265.414C106.211 264.612 110.191 264.702 111.552 265.147C110.086 265.147 106.525 265.307 104.011 265.949Z" fill="#3881F2"/>
<path d="M108.41 266.481C108.096 267.549 107.719 269.953 108.725 271.022C109.73 272.09 108.934 273.07 108.41 273.426M97.4135 268.885C97.6229 269.686 97.7905 271.716 96.7854 273.426L97.4135 268.885ZM101.812 267.015L101.498 272.891L101.812 267.015Z" stroke="#2068D9" stroke-width="1.07894"/>
<path d="M108.427 275.348C109.245 273.91 110.176 271.68 109.981 269.686C109.667 266.481 105.268 265.413 102.755 265.947C105.896 264.612 112.809 261.674 114.694 254.996C116.579 248.319 115.95 244.312 109.981 243.778C108.724 243.778 107.467 243.511 111.866 240.305C116.265 237.1 123.177 230.957 116.579 227.217C109.981 223.478 105.582 220.54 104.64 216.533C107.781 218.67 111.552 221.074 113.123 221.341C114.482 221.572 114.43 221.403 113.782 219.28C113.68 218.948 113.564 218.568 113.437 218.136C112.494 214.93 110.295 206.917 110.295 204.513C111.238 207.452 112.809 211.992 116.893 213.862C120.978 215.732 122.234 210.657 121.606 207.184C120.978 203.712 120.663 201.041 124.748 198.103C128.832 195.165 135.43 184.748 130.717 180.207C126.005 175.666 117.522 167.386 117.836 160.975C118.08 155.991 117.565 154.398 115.256 151.425C115.673 150.761 116.113 150.115 116.579 149.49C120.845 143.763 133.295 139.401 140.856 142.934C141.563 143.361 142.263 143.793 142.955 144.231C144.891 145.781 146.27 148.098 146.741 151.36C148.572 164.035 143.217 173.193 139.377 179.758C138.605 181.078 137.894 182.294 137.315 183.412C133.86 190.09 129.461 204.513 128.832 208.253C128.638 209.41 128.232 211.233 127.766 213.334C126.724 218.018 125.376 224.082 125.376 227.217C125.376 231.758 124.119 240.038 122.234 247.25C120.349 254.462 116.264 263.276 115.008 264.078C113.751 264.879 113.123 265.413 113.123 266.749C113.123 268.084 112.494 272.625 112.18 274.228C111.866 275.83 111.552 276.364 110.609 275.83C110.099 275.541 109.405 275.409 108.427 275.348Z" fill="#1771EA"/>
<path d="M132.086 196.713C130.441 201.705 129.152 206.354 128.833 208.252C128.638 209.409 128.233 211.232 127.766 213.333C126.725 218.017 125.377 224.081 125.377 227.216C125.377 228.634 125.254 230.415 125.028 232.415C123.363 229.149 120.687 225.553 117.208 224.814C111.768 223.657 115.039 223.702 117.443 223.735C117.817 223.74 118.169 223.745 118.465 223.745C120.664 223.745 121.606 222.676 119.093 221.34C117.082 220.272 114.066 214.484 112.809 211.724C114.171 214.484 118.15 220.004 123.177 220.004C124.748 220.004 126.005 218.669 125.063 215.998C124.225 213.625 126.86 203.449 132.086 196.713Z" fill="#2068D9"/>
<path d="M148.676 132.717L150.861 120.294L166.427 123.535C166.063 125.155 166.099 130.179 166.973 136.228C167.847 142.278 170.432 145.501 171.889 146.491L148.676 132.717Z" fill="#FEBE9D"/>
<path d="M150.996 120.294L166.245 123.525C165.978 124.736 165.931 127.851 166.284 131.875C155.4 130.582 151.557 123.615 150.996 120.294Z" fill="#F2AD8A"/>
<path d="M142.331 174.549C141.759 170.826 144.334 170.028 146.623 168.964C148.02 168.315 149.737 167.468 150.342 165.817C154.359 167.39 158.375 167.786 164.648 166.978C164.934 170.742 165.563 179.442 165.792 184.122C166.078 189.973 168.081 199.28 161.5 196.089C154.92 192.898 152.917 192.632 149.77 193.43C146.623 194.228 144.334 193.43 144.048 188.377C143.762 183.324 142.903 175.612 142.331 174.549Z" fill="#8CB9FF"/>
<path d="M149.219 193.578C148.343 191.7 147.021 187.464 147.44 182.548C148.008 175.891 149.711 170.566 151.698 175.625C153.287 179.672 153.685 184.411 153.685 186.275C154.821 185.654 157.148 183.027 157.375 177.488C157.659 170.565 157.943 170.831 158.795 174.825C159.646 178.819 159.93 179.352 160.782 174.825C160.896 174.221 160.989 173.673 161.074 173.177C161.613 170.022 161.797 168.94 164.582 168.463C164.542 167.912 164.505 167.413 164.472 166.979C158.249 167.788 154.264 167.392 150.279 165.817C149.678 167.47 147.975 168.318 146.588 168.968C146.399 169.057 146.208 169.144 146.017 169.231C143.914 170.187 141.81 171.143 142.33 174.56C142.898 175.625 143.75 183.347 144.034 188.406C144.302 193.195 146.352 194.166 149.219 193.578Z" fill="#7EAEFA"/>
<path opacity="0.5" d="M142.889 176.983C143.966 174.722 145.851 171.609 147.736 171.081C150.582 170.285 151.151 169.754 152.004 168.958C152.858 168.161 153.711 168.692 153.996 169.754C154.28 170.816 155.134 169.754 155.987 168.693C156.841 167.631 158.548 168.427 158.833 169.224C158.934 169.508 159.29 169.318 159.9 168.993C160.847 168.489 162.408 167.657 164.582 167.768C164.561 167.485 164.541 167.22 164.523 166.976C158.285 167.782 154.291 167.388 150.297 165.817C149.695 167.464 147.988 168.31 146.598 168.959C146.409 169.047 146.217 169.134 146.026 169.22C143.917 170.173 141.809 171.126 142.331 174.533C142.499 174.848 142.693 175.745 142.889 176.983Z" fill="#70A2F2"/>
<path d="M163.066 127.594C152.698 126.311 144.405 117.407 141.648 113.309C136.133 114.646 135.03 113.842 134.754 110.1C134.478 106.358 141.648 104.486 143.027 98.3383C144.405 92.1901 149.093 80.6962 162.329 75.3497C175.565 70.0036 186.87 87.379 187.146 92.7255C187.422 98.0716 186.598 110.792 183.286 118.12C179.779 125.877 176.026 129.198 163.066 127.594Z" fill="#FEBE9D"/>
<path d="M142.176 112.777C136.693 114.11 135.405 114.145 135.13 110.415C129.921 111.481 118.68 115.365 115.39 122.371C111.278 131.129 115.39 132.528 118.132 133.86C120.874 135.192 119.503 138.922 115.939 139.455C112.375 139.988 112.1 137.323 111.826 135.725C110.181 142.918 115.939 142.918 118.406 141.852C116.761 146.115 117.309 149.312 121.148 150.378C124.986 151.443 121.148 155.44 121.148 159.169C121.148 162.899 125.26 165.03 125.535 167.694C125.809 170.359 129.099 171.691 132.389 172.756C135.679 173.822 134.308 175.154 132.937 177.552C131.566 179.949 133.759 181.814 134.034 185.011C134.308 188.208 136.501 188.475 139.243 189.008C136.501 184.479 138.146 182.88 139.791 181.548L139.843 181.507C141.465 180.193 142.801 179.111 142.259 175.421C141.71 171.691 144.178 170.892 146.371 169.826C148.565 168.76 151.581 167.162 149.387 162.366C147.194 157.571 154.048 154.374 155.693 149.578C157.338 144.783 153.5 138.922 151.854 136.79C150.21 134.659 148.565 131.462 148.016 130.13C147.468 128.798 148.016 128.798 148.29 129.064C149.661 130.397 149.935 129.331 150.21 127.999C150.429 126.933 150.667 123.803 150.758 122.371C146.577 119.402 143.676 115.012 142.176 112.777Z" fill="#2B2B39"/>
<path d="M165.953 131.196V127.75C172.769 128.232 176.661 126.98 179.442 124.269C185.099 130.93 180.091 136.791 179.269 138.123C177.624 135.991 174.334 135.192 173.511 135.192C172.689 135.192 171.866 135.458 171.044 134.127C170.221 132.794 169.947 131.196 168.302 130.13C166.986 129.278 166.188 130.486 165.953 131.196Z" fill="#2B2B39"/>
<path d="M134.75 125.017C136.409 126.232 139.258 129.65 137.384 133.606" stroke="#151523" stroke-width="0.8"/>
<path d="M142.175 128.023C145.717 130.751 151.975 137.527 148.669 142.806C144.536 149.406 143.651 151.782 143.651 156.798" stroke="#151523" stroke-width="0.8"/>
<path d="M135.21 160.663C137.101 159.869 140.26 156.587 137.764 149.812C135.267 143.036 138.426 139.048 140.317 137.902" stroke="#151523" stroke-width="0.8"/>
<path d="M125.696 140.478C123.418 142.676 120.229 147.548 125.696 149.448C132.53 151.822 134.17 154.196 131.983 158.945" stroke="#151523" stroke-width="0.8"/>
<path d="M124.531 153.791C125.232 154.611 126.213 156.961 124.531 159.803" stroke="#151523" stroke-width="0.8"/>
<path d="M120.975 124.649C120.032 125.539 118.775 127.961 121.289 130.525C124.431 133.731 124.117 135.6 122.546 137.737" stroke="#151523" stroke-width="0.8"/>
<path opacity="0.5" d="M127.306 113.608C126.073 115.262 124.856 117.12 123.909 118.988C123.012 120.758 122.351 122.549 122.157 124.19C121.963 125.832 122.232 127.351 123.235 128.544C123.474 128.828 123.707 129.103 123.933 129.369C124.836 130.43 125.629 131.363 126.2 132.248C126.91 133.35 127.248 134.337 127.031 135.353C126.812 136.373 126.023 137.476 124.339 138.784C123.143 139.714 121.509 140.736 119.34 141.895C119.225 142.165 119.119 142.431 119.024 142.692C121.536 141.38 123.412 140.228 124.763 139.179C126.496 137.833 127.396 136.632 127.649 135.448C127.903 134.261 127.494 133.144 126.751 131.992C126.159 131.074 125.336 130.106 124.431 129.042L124.431 129.041C124.207 128.778 123.978 128.509 123.746 128.234C122.864 127.184 122.597 125.811 122.782 124.244C122.968 122.677 123.603 120.942 124.486 119.199C125.56 117.082 126.99 114.971 128.391 113.164C128.029 113.307 127.667 113.455 127.306 113.608Z" fill="#1C1C2A"/>
<path opacity="0.5" d="M144.195 115.93C143.651 117.744 143.237 120.195 143.393 122.817C143.593 126.181 144.733 129.845 147.762 132.798C151.462 136.402 152.769 138.949 152.769 141.149C152.769 143.359 151.456 145.3 149.659 147.724C147.85 150.164 146.784 152.568 146.926 155.463C147.049 157.984 148.086 160.846 150.281 164.401C150.171 163.79 149.954 163.11 149.607 162.35C149.492 162.099 149.402 161.852 149.335 161.609C148.14 159.24 147.563 157.233 147.475 155.437C147.342 152.706 148.339 150.42 150.105 148.038C151.883 145.639 153.319 143.56 153.319 141.149C153.319 138.727 151.876 136.048 148.151 132.419C145.241 129.583 144.136 126.057 143.942 122.786C143.8 120.391 144.147 118.142 144.625 116.42C144.477 116.254 144.334 116.091 144.195 115.93Z" fill="#1C1C2A"/>
<path opacity="0.5" d="M138.721 189.007C138.178 188.378 137.662 187.642 137.259 186.824C136.366 185.008 136.038 182.795 137.204 180.418C138.58 177.614 138.076 175.12 137.612 172.824C137.55 172.517 137.489 172.214 137.433 171.914C137.194 170.631 137.048 169.409 137.303 168.184C137.557 166.968 138.212 165.726 139.621 164.419C141.116 163.031 141.677 161.595 141.789 160.104C141.883 158.855 141.66 157.565 141.435 156.261C141.396 156.033 141.356 155.804 141.318 155.575C141.061 154.022 140.871 152.429 141.209 150.75C141.546 149.076 142.412 147.297 144.304 145.387L144.311 145.379L144.319 145.371C145.631 143.808 145.832 141.696 145.124 139.559C144.435 137.479 142.884 135.353 140.613 133.61C141.264 132.368 141.707 129.4 139.394 125.507C137.889 122.973 136.953 120.741 136.853 118.595C136.78 117.035 137.149 115.502 138.092 113.916C137.879 113.906 137.681 113.885 137.499 113.85C136.595 115.445 136.228 117.012 136.304 118.62C136.409 120.895 137.399 123.218 138.918 125.775C141.259 129.716 140.621 132.559 140.054 133.489C138.33 134.617 135.95 136.772 134.317 139.637C132.744 142.396 131.858 145.826 132.941 149.623C132.85 149.584 132.756 149.546 132.66 149.508C128.985 148.049 127.732 146.369 127.606 144.779C127.477 143.151 128.51 141.482 129.745 140.012C130.99 138.529 132.601 136.282 133.269 133.815C133.942 131.329 133.658 128.609 131.096 126.25C129.193 124.5 128.701 122.245 128.871 120.109C129.041 117.967 129.877 115.97 130.593 114.792L130.12 114.519C129.37 115.753 128.501 117.828 128.322 120.067C128.144 122.312 128.66 124.746 130.718 126.64C133.105 128.837 133.37 131.341 132.738 133.678C132.099 136.033 130.549 138.208 129.319 139.673C128.079 141.149 126.911 142.964 127.058 144.82C127.207 146.712 128.703 148.516 132.453 150.004C132.741 150.119 133.01 150.236 133.26 150.356C134.614 151.008 135.407 151.733 135.821 152.479C136.232 153.22 136.287 154.014 136.102 154.839C135.727 156.516 134.386 158.262 133.164 159.8L133.01 159.994C132.775 160.289 132.547 160.576 132.337 160.849C131.08 162.482 130.492 163.88 130.529 165.303C130.556 166.363 130.928 167.408 131.578 168.546C130.687 167.884 129.794 167.154 129.06 166.321C128.015 165.133 127.314 163.757 127.408 162.096C127.452 161.313 127.673 160.457 128.13 159.517C128.753 158.236 129.195 157.088 129.373 156.082C129.552 155.072 129.469 154.18 129.011 153.437C128.554 152.693 127.748 152.143 126.577 151.763C125.574 151.437 124.287 151.229 122.677 151.134C122.799 151.303 122.881 151.488 122.931 151.688C124.376 151.788 125.519 151.984 126.403 152.271C127.5 152.627 128.172 153.116 128.54 153.712C128.907 154.308 128.996 155.057 128.831 155.99C128.666 156.927 128.248 158.023 127.633 159.287C127.155 160.273 126.912 161.188 126.86 162.042C126.571 163.209 126.142 165.076 125.784 166.922C125.743 167.135 125.702 167.348 125.663 167.56C125.671 167.61 125.677 167.659 125.682 167.708C125.723 168.11 125.832 168.481 125.999 168.826C126.094 168.247 126.205 167.637 126.324 167.021C126.545 165.884 126.793 164.738 127.018 163.755C127.297 164.859 127.897 165.822 128.643 166.669C129.742 167.918 131.174 168.936 132.395 169.8L132.785 169.435C131.694 167.841 131.111 166.553 131.078 165.29C131.046 164.034 131.558 162.754 132.777 161.171C132.865 161.055 132.956 160.938 133.051 160.819C133.017 161.748 133.044 162.959 133.205 164.247C133.422 165.994 133.887 167.905 134.793 169.449C135.604 170.833 135.284 172.467 134.484 174.005C134.483 174.006 134.482 174.008 134.481 174.009C134.641 174.327 134.627 174.676 134.501 175.065C134.67 174.8 134.829 174.526 134.974 174.247C135.806 172.649 136.219 170.8 135.27 169.183C134.416 167.726 133.964 165.895 133.751 164.183C133.544 162.519 133.564 160.99 133.648 160.066C134.84 158.564 136.239 156.746 136.64 154.953C136.845 154.032 136.792 153.102 136.304 152.224C135.832 151.371 134.967 150.598 133.608 149.927C132.368 146.117 133.215 142.673 134.797 139.897C136.346 137.181 138.593 135.117 140.245 134.01C142.46 135.702 143.948 137.753 144.6 139.724C145.266 141.735 145.057 143.639 143.9 145.023C141.948 146.996 141.028 148.864 140.669 150.647C140.312 152.425 140.517 154.098 140.775 155.66C140.815 155.897 140.855 156.131 140.895 156.362C141.12 157.669 141.33 158.886 141.241 160.065C141.138 161.429 140.634 162.74 139.242 164.031C137.763 165.403 137.043 166.74 136.764 168.078C136.487 169.407 136.65 170.714 136.892 172.01C136.95 172.319 137.011 172.627 137.073 172.935C137.536 175.237 138 177.553 136.708 180.186C135.455 182.739 135.814 185.126 136.763 187.056C137.081 187.701 137.464 188.297 137.877 188.833C138.149 188.894 138.431 188.95 138.721 189.007Z" fill="#1C1C2A"/>
<path d="M115.712 122.501C118.432 120.669 121.318 119.294 122.037 120.841C123.403 123.782 126.135 121.911 126.954 119.772C127.774 117.634 128.047 118.168 129.413 121.376C129.998 122.749 130.382 122.065 130.91 121.126C131.614 119.872 132.573 118.166 134.604 120.306C136.315 122.109 137.9 120.312 139.388 118.624C140.988 116.809 142.477 115.121 143.892 118.168C144.813 120.149 145.485 122.281 146.118 124.29C146.738 126.257 147.32 128.104 148.061 129.574C147.914 128.869 148.315 128.91 148.536 129.127C149.902 130.464 150.175 129.394 150.449 128.058C150.667 126.989 150.904 123.848 150.995 122.412C146.829 119.432 143.669 115.02 142.174 112.777C136.71 114.115 135.697 114.158 135.423 110.415C130.233 111.485 119.032 115.381 115.753 122.412C115.74 122.441 115.726 122.472 115.712 122.501Z" fill="#1C1C2A"/>
<path d="M147.982 130.162C147.433 128.826 147.982 128.826 148.256 129.093C148.877 129.697 149.273 129.81 149.545 129.627C151.402 131.409 155.663 135.4 157.858 137.11C160.053 138.82 165.723 140.673 168.284 141.385C167.357 139.515 165.59 134.865 165.934 131.231C166.168 130.518 166.967 129.306 168.284 130.162C169.93 131.231 170.204 132.834 171.027 134.17C171.851 135.506 172.673 135.239 173.497 135.239C174.32 135.239 177.612 136.041 179.258 138.179C179.715 138.535 181.014 139.355 182.55 139.782C184.471 140.317 186.94 142.989 186.117 145.661C185.294 148.334 182.002 151.006 180.356 153.946C178.709 156.885 176.24 165.704 167.735 167.308C166.253 167.587 164.888 167.812 163.62 167.983C157.605 168.796 153.754 168.398 149.902 166.817C150.272 165.758 150.208 164.371 149.353 162.497C147.158 157.687 154.017 154.48 155.663 149.67C157.31 144.86 153.469 138.98 151.822 136.843C150.176 134.705 148.53 131.498 147.982 130.162Z" fill="#8CB9FF"/>
<path d="M160.281 138.329C161.838 140.494 164.872 143.517 168.652 143.875C174.265 144.408 175.067 139.35 174.532 136.954C172.127 138.818 167.85 140.415 168.117 136.688C168.154 136.169 168.196 135.676 168.237 135.207C168.427 132.992 168.573 131.303 167.915 129.915C166.752 129.311 166.043 130.428 165.827 131.099C165.492 134.719 167.214 139.351 168.117 141.214C166.29 140.694 162.838 139.565 160.281 138.329Z" fill="#7EAEFA"/>
<path d="M157.901 167.359C157.104 167.153 156.322 166.91 155.539 166.629C155.963 165.571 155.89 164.185 154.91 162.311C153.371 159.367 155.721 157.023 158.207 154.544C159.779 152.976 161.406 151.354 162.137 149.49C163.476 146.075 161.645 142.121 159.795 139.351C162.145 140.66 165.781 142.579 168.42 143.614C172.505 145.217 171.563 148.155 166.221 145.484C164.022 144.415 164.022 147.888 168.42 149.758C172.819 151.627 180.988 151.36 183.816 144.95C186.644 138.539 190.1 139.34 187.901 145.484C185.701 151.627 181.302 158.305 177.846 160.442C176.172 161.477 173.761 161.76 171.291 162.049C168.662 162.358 165.966 162.674 164.022 163.914C161.13 165.758 160.318 167.258 160.255 167.849C159.761 167.77 159.276 167.678 158.798 167.573L157.901 167.359Z" fill="#7EAEFA"/>
<path opacity="0.5" d="M149.86 165.817C149.989 164.876 149.799 163.715 149.116 162.259C147.738 159.324 149.841 156.987 152.066 154.516C153.473 152.953 154.929 151.335 155.582 149.478C155.68 149.201 155.758 148.921 155.82 148.638L158.956 151.608C160.924 153.472 167.672 153.737 171.045 152.939C168.796 154.271 165.985 154.536 160.643 153.737C155.301 152.938 153.614 155.334 156.707 156.932C159.8 158.53 168.796 156.133 171.889 154.003C169.089 158.583 163.754 159.236 159.848 159.714C159.44 159.763 159.047 159.812 158.675 159.862C157.303 160.048 155.795 159.91 154.447 159.787C151.929 159.557 149.972 159.378 150.522 161.46C151.127 163.755 150.418 165.22 149.86 165.817Z" fill="#70A2F2"/>
<path d="M153.014 85.9357C154.752 79.7346 160.077 79.61 162.522 80.3229C163.88 80.5781 162.794 77.383 167.412 76.8484C172.031 76.3138 175.019 79.2542 176.378 81.3924C177.736 83.5307 178.822 85.669 180.996 87.5398C182.082 90.7473 185.614 94.2222 186.429 95.0238C186.429 95.8259 186.744 101.139 186.744 103.544C191.362 100.069 189.418 96.895 190.505 93.9547C191.374 91.6027 190.686 90.1235 190.233 89.6781C190.324 88.4306 190.396 85.5619 189.961 84.0653C189.418 82.1941 187.516 81.927 186.701 81.927C187.244 80.5904 186.701 79.2542 185.886 78.7192C185.071 78.1846 184.256 76.8484 183.169 74.7101C182.082 72.5718 177.736 69.0971 175.834 68.2952C173.933 67.4933 173.933 66.1569 173.389 65.6223C166.326 59.4747 160.077 62.1475 158.719 62.6821C157.36 63.2167 156.546 62.6821 156.002 62.4149C145.407 56 138.615 65.0878 136.713 67.7607C125.303 72.5719 121.228 78.7196 122.043 87.2727C122.858 95.8259 120.413 99.0333 118.511 100.905C116.61 102.775 117.153 104.647 118.783 106.785C121.771 111.061 116.61 111.596 114.708 112.665C112.806 113.734 114.165 116.674 113.35 118.011C112.534 119.347 112.806 122.02 114.98 124.158C118.24 118.011 127.477 115.338 132.638 114.269C137.8 113.2 142.69 105.983 146.493 102.775C150.297 99.5679 150.84 93.6872 153.014 85.9357Z" fill="#2B2B39"/>
<path opacity="0.5" d="M145.873 103.367C146.295 96.8844 147.558 89.1524 150.186 83.3008C151.803 79.7013 153.92 76.8521 156.637 75.4199C159.298 74.0172 162.588 73.9475 166.662 75.9688C166.61 76.3696 166.504 76.7494 166.361 77.104C166.557 77.0507 166.766 77.0033 166.992 76.9631C167.108 76.6085 167.19 76.2327 167.225 75.8382C167.346 74.4952 166.928 72.9687 165.567 71.3707C164.105 69.6527 162.602 68.335 161.264 67.1622C160.853 66.8028 160.459 66.4568 160.086 66.1173C158.94 65.0747 157.995 64.0898 157.373 62.9366C157.108 62.9028 156.877 62.8298 156.672 62.7456C157.127 63.7443 157.795 64.6048 158.595 65.4323C157.293 64.917 155.673 64.4459 153.933 64.2178C150.476 63.7649 146.491 64.2667 143.598 67.3549C140.565 70.5936 138.026 75.234 135.975 80.0185C133.922 84.807 132.35 89.7598 131.257 93.6383C130.172 97.485 128.344 101.391 125.915 104.428C124.107 106.689 121.979 108.455 119.588 109.372C119.554 109.608 119.479 109.823 119.37 110.021C122.052 109.109 124.398 107.193 126.345 104.758C128.828 101.653 130.683 97.6793 131.782 93.7804C132.872 89.9138 134.438 84.9845 136.478 80.2251C138.521 75.4609 141.031 70.8872 144.001 67.7159C146.379 65.1767 149.555 64.4728 152.561 64.6279C149.643 65.7264 144.708 68.5924 141.114 74.0681C138.56 77.959 137.06 83.62 135.569 89.2475L135.451 89.6941C133.912 95.498 132.353 101.217 129.658 105.042C127.513 108.085 124.516 109.949 121.631 111.041C119.191 111.965 116.841 112.332 115.177 112.398C114.964 112.487 114.769 112.578 114.6 112.672C114.499 112.729 114.406 112.791 114.322 112.858L114.32 112.939C116.038 112.984 118.871 112.658 121.828 111.539C124.787 110.419 127.885 108.499 130.107 105.346C132.869 101.426 134.448 95.6035 135.979 89.8283L136.083 89.4362C137.586 83.7637 139.067 78.1744 141.573 74.3567C145.651 68.1438 151.485 65.3756 153.913 64.7543C155.714 64.9957 157.379 65.5042 158.673 66.0418C155.372 66.2313 149.986 67.9888 147.637 74.1187C146.835 76.2124 145.758 79.6404 144.491 83.6689L144.396 83.9742C143.086 88.1394 141.578 92.9262 139.96 97.5626C138.341 102.2 136.613 106.678 134.868 110.228C134.103 111.783 133.338 113.155 132.578 114.282C132.589 114.279 132.6 114.277 132.611 114.275C132.861 114.223 133.111 114.157 133.359 114.078C134.029 113.029 134.697 111.808 135.36 110.459C137.119 106.881 138.855 102.379 140.476 97.7354C142.098 93.0902 143.609 88.2958 144.917 84.1315L145.007 83.8449C146.278 79.8008 147.352 76.3844 148.148 74.3062C150.683 67.6917 156.904 66.3969 159.785 66.5728C160.149 66.9024 160.528 67.2345 160.918 67.5763C162.251 68.7452 163.713 70.0276 165.148 71.7126C166.287 73.0496 166.697 74.297 166.699 75.39C162.598 73.413 159.184 73.4707 156.378 74.9498C153.505 76.464 151.324 79.4405 149.687 83.0854C146.943 89.1918 145.677 97.2832 145.293 103.918C145.489 103.727 145.682 103.543 145.873 103.367Z" fill="#1C1C2A"/>
<path opacity="0.5" d="M119.197 107.619C122.35 106.49 124.199 103.755 125.432 100.41C126.189 98.3531 126.721 96.0501 127.182 93.7179C127.366 92.7901 127.538 91.8603 127.708 90.9388C127.968 89.5349 128.223 88.1505 128.512 86.8202C129.86 80.5976 133.884 72.4167 136.359 67.9482C136.083 68.0662 135.812 68.185 135.544 68.3046C133.044 72.8987 129.283 80.6892 127.978 86.7096C127.689 88.0442 127.429 89.4461 127.168 90.8584C126.998 91.7787 126.827 92.7033 126.646 93.6164C126.187 95.9418 125.661 98.2122 124.918 100.229C123.701 103.532 121.92 106.109 118.926 107.146C119.029 107.309 119.119 107.467 119.197 107.619Z" fill="#1C1C2A"/>
<path d="M186.453 95.7415C186.849 95.7725 187.249 95.7928 187.646 95.804C188.45 95.8266 189.256 95.8115 190.029 95.7717C190.05 95.591 190.075 95.4115 190.105 95.2332C189.314 95.2761 188.487 95.2937 187.662 95.2706C187.248 95.259 186.837 95.2371 186.434 95.2041C186.437 95.3406 186.444 95.5225 186.453 95.7415Z" fill="#3A0A44"/>
<path d="M181.221 88.1342C184.737 89.8554 188.18 90.2482 190.456 90.1634C190.354 89.9724 190.246 89.8279 190.148 89.7316L190.151 89.6934L190.155 89.638C187.785 89.6814 184.213 89.1938 180.653 87.2358C180.764 87.3381 180.877 87.4396 180.994 87.5399C181.061 87.7374 181.137 87.9356 181.221 88.1342Z" fill="#3A0A44"/>
<path opacity="0.5" d="M162.601 68.7383C163.824 67.3612 167.624 65.3266 173.866 66.5643C173.965 66.7626 174.08 66.9744 174.235 67.1874C167.855 65.7747 164.104 67.8555 163.009 69.0898L162.601 68.7383Z" fill="#1C1C2A"/>
<path opacity="0.5" d="M184.681 82.0047C185.367 82.1309 186.06 82.0366 186.752 81.6194C186.72 81.7428 186.679 81.8674 186.628 81.9916C186.765 81.9916 186.933 81.9991 187.121 82.021C186.298 82.5449 185.444 82.6878 184.582 82.5293C183.369 82.3064 182.188 81.4944 181.093 80.4488C179.385 78.818 177.8 76.5288 176.551 74.7253C176.199 74.2158 175.873 73.7453 175.578 73.3393C174.584 71.9667 172.912 71.6925 171.136 71.9601C169.365 72.2269 167.571 73.0245 166.462 73.68L166.184 73.2223C167.332 72.5432 169.193 71.7128 171.054 71.4324C172.91 71.1529 174.848 71.4126 176.019 73.0292C176.326 73.4528 176.661 73.9364 177.021 74.4554C178.268 76.2554 179.806 78.4773 181.47 80.0651C182.54 81.0876 183.627 81.8105 184.681 82.0047Z" fill="#1C1C2A"/>
<path d="M166.749 69.5893C168.381 68.3337 172.464 66.845 175.729 70.9346C178.995 75.0244 182.17 77.6615 183.35 78.4687M170.559 74.9711C173.008 75.5988 178.287 77.7152 179.812 81.1591C181.717 85.4639 185.255 88.1547 187.976 87.8856M185.799 90.576C186.253 91.2936 187.541 92.5132 189.065 91.6523M165.388 64.2087C166.567 64.0293 169.252 63.832 170.559 64.4778" stroke="#151523" stroke-width="0.8"/>
<path d="M160.28 69.4735C156.666 69.3844 148.679 72.04 145.642 83.3752M144.829 74.0184C142.751 77.85 138.215 87.118 136.697 93.5341C134.799 101.554 133.444 111.713 119.89 113.852M122.601 100.218C123.866 98.2572 126.233 93.1599 125.583 88.4546C124.77 82.5731 125.854 76.9591 130.733 73.7509M152.962 62.7899C148.172 62.4334 138.053 64.0731 135.884 73.4834C133.715 82.894 129.017 94.8707 126.938 99.6826" stroke="#151523" stroke-width="0.8"/>
</g>
<path d="M404.891 77.7671H328.037C324.642 77.7671 321.89 80.5188 321.89 83.9137V101.336C321.89 104.73 324.642 107.483 328.037 107.483H390.668L409.839 113.714L404.567 107.483H404.891C408.285 107.483 411.037 104.73 411.037 101.336V83.9137C411.037 80.5188 408.285 77.7671 404.891 77.7671Z" fill="#FFBE56"/>
<path fill-rule="evenodd" clip-rule="evenodd" d="M342.499 95.0217C344.087 95.0217 345.375 93.734 345.375 92.1459C345.375 90.5577 344.087 89.27 342.499 89.27C340.911 89.27 339.624 90.5577 339.624 92.1459C339.624 93.734 340.911 95.0217 342.499 95.0217ZM358.795 95.0217C360.383 95.0217 361.671 93.734 361.671 92.1459C361.671 90.5577 360.383 89.27 358.795 89.27C357.207 89.27 355.919 90.5577 355.919 92.1459C355.919 93.734 357.207 95.0217 358.795 95.0217ZM377.487 92.1459C377.487 93.734 376.2 95.0217 374.611 95.0217C373.023 95.0217 371.736 93.734 371.736 92.1459C371.736 90.5577 373.023 89.27 374.611 89.27C376.2 89.27 377.487 90.5577 377.487 92.1459ZM390.428 95.0217C392.016 95.0217 393.304 93.734 393.304 92.1459C393.304 90.5577 392.016 89.27 390.428 89.27C388.84 89.27 387.552 90.5577 387.552 92.1459C387.552 93.734 388.84 95.0217 390.428 95.0217Z" fill="white"/>
<path d="M289.489 452.938C289.489 504.734 331.478 546.723 383.273 546.723C435.07 546.723 477.061 504.734 477.061 452.938C477.061 401.141 435.07 359.152 383.273 359.152C331.478 359.152 289.489 401.141 289.489 452.938Z" fill="white"/>
<path d="M383.273 360.152C434.517 360.152 476.061 401.694 476.061 452.937C476.061 504.181 434.517 545.722 383.273 545.722C332.031 545.722 290.489 504.181 290.489 452.937C290.489 401.693 332.031 360.152 383.273 360.152Z" stroke="#2773D9" stroke-opacity="0.6" stroke-width="2"/>
<path d="M401.127 391.333C391.607 411.071 375.261 399.3 371.508 391.332C378.956 391.33 376.568 376.234 375.499 368.686H397.498C397.083 380.312 399.743 388.629 401.127 391.333Z" fill="#FCC4AC"/>
<path d="M401.127 391.333C391.607 411.071 375.261 399.3 371.508 391.332C378.956 391.33 376.568 376.234 375.499 368.686H397.498C397.083 380.312 399.743 388.629 401.127 391.333Z" fill="url(#paint1_linear_5_1388)"/>
<path d="M351.07 401.055C350.957 433.323 342.144 518.661 340.837 531.942C340.148 538.968 357.295 545.109 376.497 546.482C401.442 548.267 422.307 539.854 426.809 536.018C428.05 497.665 430.016 413.946 430.016 406.832C420.685 400.183 407.322 393.96 401.127 391.334C388.833 398.952 380.042 396.35 374.269 390.455C365.592 392.076 355.121 398.585 351.07 401.055Z" fill="#307FE2"/>
<path d="M351.07 401.055C350.957 433.323 342.144 518.661 340.837 531.942C340.148 538.968 357.295 545.109 376.497 546.482C401.442 548.267 422.307 539.854 426.809 536.018C428.05 497.665 430.016 413.946 430.016 406.832C420.685 400.183 407.322 393.96 401.127 391.334C388.833 398.952 380.042 396.35 374.269 390.455C365.592 392.076 355.121 398.585 351.07 401.055Z" fill="url(#paint2_linear_5_1388)"/>
<path d="M351.07 401.055C350.957 433.323 342.144 518.661 340.837 531.942C340.148 538.968 357.295 545.109 376.497 546.482C401.442 548.267 422.307 539.854 426.809 536.018C428.05 497.665 430.016 413.946 430.016 406.832C420.685 400.183 407.322 393.96 401.127 391.334C388.833 398.952 380.042 396.35 374.269 390.455C365.592 392.076 355.121 398.585 351.07 401.055Z" fill="#2773D9"/>
<path opacity="0.35" d="M373.044 390.712C373.193 390.677 373.341 390.645 373.484 390.613C374.321 395.988 375.146 403.2 375.432 410.636C375.788 419.987 375.283 429.724 372.83 436.609C369.807 445.114 369.807 455.443 370.567 465.059C370.888 469.17 371.351 473.144 371.779 476.786V476.786V476.8C371.85 477.41 371.921 478.011 371.987 478.601C372.462 482.714 372.848 486.336 372.848 489.13C372.848 489.737 372.848 490.332 372.848 490.917C372.872 495.681 372.89 499.808 371.565 504.698C370.086 510.189 366.921 516.627 360.221 526.035C359.389 527.214 359.193 528.877 359.473 530.841C359.746 532.8 360.482 535.02 361.468 537.277C362.579 539.828 363.998 542.411 365.4 544.694C365.204 544.654 365.002 544.615 364.806 544.575C363.464 542.366 362.122 539.898 361.058 537.456C360.067 535.181 359.312 532.918 359.027 530.903C358.748 528.893 358.926 527.091 359.853 525.776V525.775C366.54 516.389 369.67 510 371.132 504.581C372.438 499.753 372.42 495.686 372.403 490.918V490.916C372.403 490.332 372.397 489.738 372.397 489.13C372.397 486.366 372.017 482.771 371.541 478.652C371.476 478.06 371.405 477.457 371.333 476.844V476.839V476.839C370.906 473.198 370.443 469.214 370.116 465.094C369.356 455.468 369.356 445.058 372.408 436.458C374.826 429.658 375.337 419.994 374.98 410.653C374.701 403.249 373.881 396.067 373.044 390.712Z" fill="white"/>
<path opacity="0.35" d="M344.415 537.574C344.629 537.722 344.849 537.868 345.08 538.013C344.201 535.926 343.548 533.884 343.293 532.067C343.019 530.103 343.209 528.44 344.041 527.261C350.74 517.853 353.906 511.415 355.391 505.924C356.709 501.034 356.692 496.907 356.674 492.143V492.133C356.668 491.552 356.668 490.96 356.668 490.356C356.668 487.562 356.288 483.94 355.813 479.827C355.741 479.237 355.67 478.636 355.599 478.026V478.012V478.012C355.171 474.37 354.708 470.396 354.387 466.285C353.627 456.669 353.627 446.34 356.656 437.835C359.103 430.95 359.608 421.213 359.251 411.863C359.05 406.597 358.58 401.444 358.022 396.976C357.88 397.053 357.737 397.131 357.6 397.209C358.147 401.624 358.604 406.697 358.8 411.879C359.156 421.22 358.646 430.884 356.228 437.684C353.176 446.284 353.176 456.694 353.936 466.32C354.262 470.441 354.726 474.424 355.153 478.065V478.065V478.07C355.225 478.683 355.296 479.286 355.367 479.879C355.842 483.998 356.217 487.592 356.217 490.356C356.217 490.963 356.222 491.557 356.222 492.139V492.144C356.24 496.912 356.258 500.979 354.957 505.807C353.49 511.226 350.36 517.615 343.673 527.001V527.002C342.746 528.317 342.568 530.119 342.847 532.129C343.085 533.817 343.655 535.678 344.415 537.574Z" fill="white"/>
<path opacity="0.35" d="M381.566 547.081C380.444 545.159 379.351 543.085 378.454 541.028C377.462 538.754 376.708 536.491 376.429 534.475C376.144 532.465 376.322 530.664 377.249 529.349V529.348C383.936 519.962 387.072 513.572 388.533 508.154C389.834 503.325 389.816 499.258 389.798 494.49V494.488C389.798 493.905 389.792 493.311 389.792 492.703C389.792 489.939 389.418 486.344 388.943 482.225C388.872 481.631 388.801 481.026 388.729 480.412V480.412C388.308 476.771 387.838 472.787 387.518 468.667C386.757 459.04 386.752 448.63 389.81 440.031C392.228 433.231 392.732 423.567 392.382 414.226C392.121 407.45 391.414 400.86 390.654 395.685C390.802 395.657 390.951 395.628 391.093 395.597C391.853 400.789 392.572 407.405 392.827 414.209C393.184 423.56 392.679 433.297 390.232 440.181C387.209 448.686 387.203 459.016 387.963 468.631C388.29 472.743 388.753 476.717 389.175 480.357V480.358C389.246 480.973 389.317 481.579 389.389 482.174C389.864 486.287 390.244 489.908 390.244 492.703C390.244 493.309 390.244 493.904 390.25 494.49C390.268 499.253 390.285 503.381 388.967 508.271C387.482 513.761 384.322 520.2 377.617 529.607C376.785 530.786 376.595 532.45 376.868 534.413C377.148 536.372 377.884 538.593 378.864 540.85C379.797 542.989 380.949 545.151 382.119 547.139C381.935 547.12 381.751 547.101 381.566 547.081Z" fill="white"/>
<path opacity="0.35" d="M400.145 548.253C398.779 546.017 397.412 543.509 396.331 541.028C395.34 538.753 394.585 536.49 394.3 534.475C394.021 532.465 394.199 530.663 395.126 529.348V529.348C401.813 519.961 404.944 513.572 406.411 508.153C407.711 503.325 407.693 499.258 407.676 494.49C407.676 493.905 407.67 493.311 407.67 492.703C407.67 489.938 407.296 486.343 406.82 482.225C406.749 481.631 406.678 481.026 406.607 480.412V480.411C406.185 476.77 405.716 472.787 405.395 468.667C404.629 459.04 404.629 448.63 407.687 440.03C410.105 433.231 410.61 423.566 410.259 414.226C409.98 406.966 409.184 399.92 408.371 394.599C408.531 394.676 408.691 394.754 408.858 394.832C409.659 400.132 410.431 407.066 410.705 414.208C411.061 423.56 410.556 433.296 408.109 440.181C405.086 448.686 405.08 459.015 405.84 468.631C406.167 472.743 406.63 476.717 407.052 480.358V480.366C407.123 480.978 407.195 481.581 407.266 482.173C407.741 486.286 408.121 489.908 408.121 492.703C408.121 493.309 408.121 493.903 408.127 494.487V494.489C408.145 499.253 408.163 503.38 406.844 508.27C405.359 513.761 402.2 520.2 395.494 529.607C394.663 530.786 394.472 532.449 394.746 534.413C395.025 536.372 395.761 538.592 396.741 540.849C397.852 543.398 399.271 545.98 400.673 548.261C400.495 548.259 400.323 548.256 400.145 548.253Z" fill="white"/>
<path opacity="0.35" d="M418.284 547.355C417.108 545.356 415.95 543.182 415.012 541.028C414.02 538.753 413.266 536.49 412.987 534.475C412.701 532.465 412.886 530.663 413.806 529.348L413.812 529.348C420.5 519.961 423.63 513.572 425.091 508.153C426.392 503.325 426.38 499.258 426.362 494.49C426.356 493.905 426.356 493.311 426.356 492.703C426.356 489.938 425.976 486.343 425.501 482.225C425.429 481.632 425.364 481.028 425.293 480.415V480.412C424.865 476.77 424.402 472.787 424.075 468.667C423.315 459.04 423.309 448.63 426.368 440.03C428.785 433.231 429.296 423.566 428.94 414.226C428.827 411.319 428.637 408.447 428.387 405.706C428.553 405.814 428.708 405.923 428.868 406.032C429.1 408.669 429.284 411.423 429.385 414.208C429.741 423.56 429.237 433.296 426.79 440.18C423.766 448.686 423.76 459.015 424.521 468.631C424.847 472.743 425.311 476.717 425.738 480.358C425.81 480.973 425.875 481.578 425.946 482.173C426.421 486.286 426.801 489.907 426.801 492.703C426.801 493.309 426.807 493.903 426.807 494.488C426.825 499.253 426.843 503.38 425.524 508.27C424.04 513.76 420.88 520.2 414.174 529.607C413.349 530.786 413.153 532.449 413.432 534.413C413.705 536.372 414.442 538.592 415.428 540.849C416.378 543.038 417.56 545.252 418.76 547.278C418.605 547.304 418.445 547.33 418.284 547.355Z" fill="white"/>
<path d="M362.159 336.952C361.862 343.712 362.159 360.23 362.159 372.329C362.159 392.781 392.812 376.923 397.498 368.685C406.728 352.46 396.524 337.828 394.576 336.952H362.159Z" fill="url(#paint3_linear_5_1388)"/>
<path d="M362.159 336.952C361.862 343.712 362.159 360.23 362.159 372.329C362.159 392.781 392.812 376.923 397.498 368.685C406.728 352.46 396.524 337.828 394.576 336.952H362.159Z" fill="#FCC4AC"/>
<path d="M397.985 330.99C404.684 329.718 403.704 335.143 403.318 336.026C419.325 340.436 399.867 372.769 397.48 373.442L397.462 367.409C397.438 365.004 402.142 362.554 399.57 358.329C396.155 352.72 395.413 363.742 395.413 363.742C392.989 362.466 392.11 353.319 394.367 348.144C386.444 351.639 381.247 345.128 380.244 343.268C374.655 346.517 366.09 345.212 363.334 342.536C362.895 344.029 362.022 346.807 362.022 351.673C355.631 348.232 352.335 335.528 355.714 336.687C355.281 311.389 377.607 320.485 380.244 323.491C382.875 326.498 383.498 325.656 383.843 325.431C393.251 320.838 397.824 325.389 396.945 328.289C396.06 331.188 397.723 331.049 397.985 330.99Z" fill="#6E000E"/>
<path d="M265.676 444.118C260.887 444.543 256.726 441.685 257.658 441.362C270.119 437.038 286.872 442.424 296.556 445.395C299.955 452.263 294.314 459.875 291.069 462.822C289.434 461.171 286.051 459.035 283.833 459.035C272.561 458.415 261.712 474.589 250.688 466.538C241.869 460.097 257.006 448.907 265.676 444.118Z" fill="#F4B88E"/>
<path d="M265.676 444.118C260.887 444.543 256.726 441.685 257.658 441.362C270.119 437.038 286.872 442.424 296.556 445.395C299.955 452.263 294.314 459.875 291.069 462.822C289.434 461.171 286.051 459.035 283.833 459.035C272.561 458.415 261.712 474.589 250.688 466.538C241.869 460.097 257.006 448.907 265.676 444.118Z" fill="#FCC4AC"/>
<path d="M351.069 401.05C352.239 422.685 348.693 459.949 345.997 478.911C343.146 486.057 282.471 463.807 284.083 459.505C285.696 455.203 289.734 448.898 291.728 443.834C293.096 440.36 328.019 456.727 329.31 450.856C330.602 444.985 331.596 411.992 351.069 401.05Z" fill="#307FE2"/>
<path d="M351.069 401.05C352.239 422.685 348.693 459.949 345.997 478.911C343.146 486.057 282.471 463.807 284.083 459.505C285.696 455.203 289.734 448.898 291.728 443.834C293.096 440.36 328.019 456.727 329.31 450.856C330.602 444.985 331.596 411.992 351.069 401.05Z" fill="url(#paint4_linear_5_1388)"/>
<path d="M351.069 401.05C352.239 422.685 348.693 459.949 345.997 478.911C343.146 486.057 282.471 463.807 284.083 459.505C285.696 455.203 289.734 448.898 291.728 443.834C293.096 440.36 328.019 456.727 329.31 450.856C330.602 444.985 331.596 411.992 351.069 401.05Z" fill="#2773D9"/>
<path opacity="0.35" fill-rule="evenodd" clip-rule="evenodd" d="M348.167 402.707C343.789 414.496 342.572 431.438 344.55 444.287C345.536 450.695 346.064 456.323 345.215 460.931C344.371 465.522 342.162 469.093 337.658 471.411C335.99 472.27 334.448 472.163 332.823 471.57C331.614 471.129 330.381 470.427 329.025 469.656C328.537 469.378 328.032 469.091 327.507 468.804C323.561 466.646 318.62 464.588 311.243 466.858C305.493 468.628 299.784 466.787 295.233 463.927C290.676 461.063 287.328 457.208 286.301 455.031L285.895 455.223C286.968 457.499 290.388 461.412 294.994 464.307C299.604 467.204 305.452 469.11 311.375 467.288C318.589 465.068 323.398 467.069 327.291 469.198C327.797 469.474 328.291 469.755 328.773 470.029C330.14 470.807 331.422 471.536 332.669 471.992C334.376 472.615 336.055 472.742 337.864 471.811C342.512 469.419 344.793 465.719 345.654 461.012C346.521 456.323 345.975 450.627 344.989 444.218C343.023 431.433 344.241 414.57 348.588 402.863L348.167 402.707ZM338.863 415.783C339.006 415.025 339.138 414.326 339.252 413.698L338.811 413.617C338.697 414.242 338.566 414.938 338.423 415.696C337.651 419.788 336.544 425.657 335.963 431.661C335.275 438.764 335.317 446.114 337.557 450.951C340.19 456.633 339.125 460.561 336.752 462.5C334.362 464.452 330.559 464.469 327.535 462.15C325.898 460.895 323.297 459.359 319.919 458.905C316.535 458.451 312.392 459.085 307.68 462.14C306.475 462.921 304.58 463.057 302.415 462.637C300.261 462.22 297.884 461.262 295.754 459.919C293.624 458.575 291.756 456.854 290.605 454.919C289.456 452.989 289.025 450.854 289.744 448.657L289.317 448.517C288.549 450.863 289.019 453.133 290.22 455.149C291.417 457.161 293.344 458.929 295.514 460.298C297.686 461.669 300.115 462.649 302.33 463.078C304.535 463.504 306.573 463.393 307.924 462.517C312.552 459.516 316.588 458.91 319.859 459.35C323.135 459.79 325.664 461.281 327.262 462.507C330.426 464.932 334.462 464.95 337.036 462.848C339.625 460.732 340.647 456.552 337.965 450.762C335.78 446.046 335.723 438.807 336.41 431.704C336.989 425.722 338.091 419.876 338.863 415.783Z" fill="white"/>
<path d="M291.728 443.834C289.734 448.899 285.696 455.203 284.083 459.505C283.808 460.242 285.358 461.505 288.132 463.057C292.586 459.759 296.437 449.138 297.805 444.24C294.42 443.324 292.064 442.982 291.728 443.834Z" fill="#105CC1"/>
<path d="M416.989 549.526C419.103 548.545 426.237 534.335 430.014 524.453L421.449 517.589C409.405 521.632 404.415 533.684 407.439 533.188C410.462 532.691 410.741 534.325 408.139 537.755C398.144 550.913 414.079 550.88 416.989 549.526Z" fill="#FCC4AC"/>
<path d="M455.303 475.828C460.631 458.265 443.312 417.47 430.014 406.833C430.014 411.176 429.182 431.276 428.731 457.963C436.363 471.638 417.547 513.238 415.789 516.747C414.025 520.256 429.396 533.372 431.908 528.297C434.421 523.221 449.311 495.576 455.303 475.828Z" fill="#307FE2"/>
<path d="M455.303 475.828C460.631 458.265 443.312 417.47 430.014 406.833C430.014 411.176 429.182 431.276 428.731 457.963C436.363 471.638 417.547 513.238 415.789 516.747C414.025 520.256 429.396 533.372 431.908 528.297C434.421 523.221 449.311 495.576 455.303 475.828Z" fill="url(#paint5_linear_5_1388)"/>
<path d="M455.303 475.828C460.631 458.265 443.312 417.47 430.014 406.833C430.014 411.176 429.182 431.276 428.731 457.963C436.363 471.638 417.547 513.238 415.789 516.747C414.025 520.256 429.396 533.372 431.908 528.297C434.421 523.221 449.311 495.576 455.303 475.828Z" fill="#2773D9"/>
<path opacity="0.35" fill-rule="evenodd" clip-rule="evenodd" d="M431.906 418.478C431.187 417.589 430.528 416.774 429.958 416.047L429.601 416.324C430.177 417.059 430.848 417.881 431.573 418.776C433.907 421.656 436.859 425.291 439.353 429.223C442.632 434.383 445.091 439.996 444.402 445.024C443.951 448.269 444.657 451.657 445.81 455.038C446.605 457.382 447.615 459.74 448.607 462.056C449.047 463.078 449.486 464.092 449.896 465.092C451.244 468.372 452.337 471.512 452.515 474.4C452.687 477.275 451.951 479.895 449.629 482.155C445.162 486.513 444.242 490.457 443.357 494.22C443.244 494.711 443.131 495.199 443.006 495.685C442.484 497.784 441.83 499.836 440.423 501.912C439.015 503.987 436.847 506.1 433.278 508.302C431.888 509.158 430.629 510.769 429.554 512.693C428.473 514.622 427.558 516.891 426.875 519.092C426.186 521.292 425.723 523.433 425.545 525.109C425.455 525.946 425.432 526.676 425.497 527.243C425.515 527.421 425.545 527.587 425.586 527.737C423.977 526.821 422.284 525.566 420.769 524.212C419.95 520.492 420.324 516.03 421.732 512.104C423.145 508.15 425.58 504.778 428.829 503.24C431.846 501.814 433.438 500.018 434.293 497.973C435.137 495.943 435.244 493.686 435.321 491.368C435.327 491.273 435.327 491.179 435.333 491.084C435.404 488.843 435.481 486.54 436.17 484.253C436.883 481.879 438.255 479.516 440.981 477.28C443.689 475.061 444.604 472.811 444.432 470.526C444.271 468.267 443.048 466.015 441.599 463.779C441.141 463.073 440.66 462.37 440.185 461.666C439.134 460.123 438.077 458.578 437.263 457.012C436.075 454.738 435.422 452.469 435.998 450.172C438.938 438.452 431.799 430.885 429.554 428.799L429.245 429.128C431.46 431.183 438.439 438.59 435.558 450.063C434.947 452.516 435.659 454.905 436.865 457.219C437.691 458.81 438.771 460.391 439.829 461.946C440.31 462.644 440.779 463.338 441.224 464.023C442.674 466.257 443.832 468.425 443.986 470.559C444.141 472.669 443.321 474.786 440.702 476.932C437.898 479.226 436.479 481.666 435.742 484.125C435.036 486.468 434.958 488.824 434.881 491.053C434.881 491.153 434.875 491.253 434.875 491.353C434.792 493.682 434.685 495.858 433.877 497.801C433.076 499.73 431.567 501.449 428.639 502.835C425.242 504.442 422.741 507.936 421.31 511.953C419.873 515.972 419.48 520.553 420.348 524.38L420.365 524.45L420.419 524.498C422.177 526.078 424.184 527.534 426.038 528.496L426.275 528.114C426.21 528.07 426.138 527.981 426.079 527.821C426.02 527.663 425.972 527.454 425.943 527.193C425.883 526.672 425.901 525.978 425.99 525.157C426.162 523.517 426.62 521.405 427.303 519.226C427.98 517.046 428.882 514.808 429.946 512.913C431.009 511.011 432.22 509.48 433.515 508.684C437.12 506.457 439.342 504.303 440.797 502.164C442.246 500.024 442.917 497.913 443.446 495.794C443.564 495.303 443.683 494.812 443.796 494.319C444.675 490.566 445.572 486.74 449.943 482.476C452.373 480.11 453.139 477.356 452.961 474.373C452.782 471.404 451.66 468.204 450.312 464.922C449.896 463.907 449.456 462.886 449.011 461.859C448.025 459.552 447.021 457.221 446.231 454.894C445.091 451.538 444.408 448.229 444.842 445.085C445.56 439.888 443.018 434.156 439.734 428.983C437.221 425.025 434.246 421.36 431.906 418.478Z" fill="white"/>
<path d="M424.188 495.973C428.916 482.326 433.044 465.689 428.732 457.964C440.314 466.084 431.517 484.253 424.188 495.973Z" fill="#105CC1"/>
<path d="M415.789 516.747C414.025 520.257 429.396 533.372 431.908 528.297C432.104 527.906 432.372 527.381 432.698 526.736C429.016 525.913 420.725 522.249 416.983 514.171C416.407 515.458 415.985 516.349 415.789 516.747Z" fill="#307FE2"/>
<path d="M415.789 516.747C414.025 520.257 429.396 533.372 431.908 528.297C432.104 527.906 432.372 527.381 432.698 526.736C429.016 525.913 420.725 522.249 416.983 514.171C416.407 515.458 415.985 516.349 415.789 516.747Z" fill="url(#paint6_linear_5_1388)"/>
<path d="M415.789 516.747C414.025 520.257 429.396 533.372 431.908 528.297C432.104 527.906 432.372 527.381 432.698 526.736C429.016 525.913 420.725 522.249 416.983 514.171C416.407 515.458 415.985 516.349 415.789 516.747Z" fill="#105CC1"/>
<path d="M306.638 354.666H229.784C226.389 354.666 223.637 357.417 223.637 360.812V378.235C223.637 381.629 226.389 384.381 229.784 384.381H292.415L311.586 390.612L306.314 384.381H306.638C310.032 384.381 312.784 381.629 312.784 378.235V360.812C312.784 357.417 310.032 354.666 306.638 354.666Z" fill="#8BBAFA"/>
<path fill-rule="evenodd" clip-rule="evenodd" d="M244.246 371.92C245.834 371.92 247.122 370.633 247.122 369.045C247.122 367.456 245.834 366.169 244.246 366.169C242.658 366.169 241.371 367.456 241.371 369.045C241.371 370.633 242.658 371.92 244.246 371.92ZM260.542 371.92C262.13 371.92 263.418 370.633 263.418 369.045C263.418 367.456 262.13 366.169 260.542 366.169C258.954 366.169 257.666 367.456 257.666 369.045C257.666 370.633 258.954 371.92 260.542 371.92ZM279.234 369.045C279.234 370.633 277.947 371.92 276.358 371.92C274.77 371.92 273.483 370.633 273.483 369.045C273.483 367.456 274.77 366.169 276.358 366.169C277.947 366.169 279.234 367.456 279.234 369.045ZM292.175 371.92C293.763 371.92 295.051 370.633 295.051 369.045C295.051 367.456 293.763 366.169 292.175 366.169C290.587 366.169 289.299 367.456 289.299 369.045C289.299 370.633 290.587 371.92 292.175 371.92Z" fill="white"/>
<defs>
<filter id="filter0_d_5_1388" x="0" y="0" width="311.318" height="311.318" filterUnits="userSpaceOnUse" color-interpolation-filters="sRGB">
<feFlood flood-opacity="0" result="BackgroundImageFix"/>
<feColorMatrix in="SourceAlpha" type="matrix" values="0 0 0 0 0 0 0 0 0 0 0 0 0 0 0 0 0 0 127 0" result="hardAlpha"/>
<feOffset dy="-17"/>
<feGaussianBlur stdDeviation="29"/>
<feColorMatrix type="matrix" values="0 0 0 0 0.696557 0 0 0 0 0.836898 0 0 0 0 0.818186 0 0 0 0.05 0"/>
<feBlend mode="normal" in2="BackgroundImageFix" result="effect1_dropShadow_5_1388"/>
<feBlend mode="normal" in="SourceGraphic" in2="effect1_dropShadow_5_1388" result="shape"/>
</filter>
<linearGradient id="paint0_linear_5_1388" x1="544.728" y1="98.9878" x2="548.601" y2="122.872" gradientUnits="userSpaceOnUse">
<stop stop-color="#F4AF8A"/>
<stop offset="1" stop-color="#F9C0A1" stop-opacity="0"/>
</linearGradient>
<linearGradient id="paint1_linear_5_1388" x1="380.268" y1="385.421" x2="389.961" y2="390.372" gradientUnits="userSpaceOnUse">
<stop stop-color="#F3AD8F"/>
<stop offset="1" stop-color="#FCC4AC" stop-opacity="0"/>
</linearGradient>
<linearGradient id="paint2_linear_5_1388" x1="415.613" y1="515.084" x2="391.369" y2="502.684" gradientUnits="userSpaceOnUse">
<stop stop-color="#026CF0"/>
<stop offset="1" stop-color="#307FE2" stop-opacity="0"/>
</linearGradient>
<linearGradient id="paint3_linear_5_1388" x1="359.041" y1="364.584" x2="378.136" y2="366.72" gradientUnits="userSpaceOnUse">
<stop stop-color="#FEA568"/>
<stop offset="1" stop-color="#F4B88E"/>
</linearGradient>
<linearGradient id="paint4_linear_5_1388" x1="323.668" y1="479.016" x2="324.922" y2="468.63" gradientUnits="userSpaceOnUse">
<stop stop-color="#0154F7"/>
<stop offset="1" stop-color="#307FE2" stop-opacity="0"/>
</linearGradient>
<linearGradient id="paint5_linear_5_1388" x1="454.317" y1="479.422" x2="445.67" y2="475.772" gradientUnits="userSpaceOnUse">
<stop stop-color="#0071FF"/>
<stop offset="1" stop-color="#307FE2" stop-opacity="0"/>
</linearGradient>
<linearGradient id="paint6_linear_5_1388" x1="454.317" y1="479.423" x2="445.67" y2="475.772" gradientUnits="userSpaceOnUse">
<stop stop-color="#0071FF"/>
<stop offset="1" stop-color="#307FE2" stop-opacity="0"/>
</linearGradient>
</defs>
</svg>
