<svg width="26" height="17" viewBox="0 0 26 17" fill="none" xmlns="http://www.w3.org/2000/svg">
<path d="M0 1.41667C0 0.63427 0.646707 0 1.44444 0H24.5556C25.3533 0 26 0.63427 26 1.41667C26 2.19908 25.3533 2.83333 24.5556 2.83333H1.44444C0.646707 2.83333 0 2.19908 0 1.41667Z" fill="#333333"/>
<path d="M1.44444 7.08331C0.646707 7.08331 0 7.71755 0 8.49998C0 9.28226 0.646707 9.91665 1.44444 9.91665H24.5556C25.3533 9.91665 26 9.28226 26 8.49998C26 7.71755 25.3533 7.08331 24.5556 7.08331H1.44444Z" fill="#333333"/>
<path d="M0 15.5834C0 14.8009 0.646707 14.1667 1.44444 14.1667H24.5556C25.3533 14.1667 26 14.8009 26 15.5834C26 16.3658 25.3533 17 24.5556 17H1.44444C0.646707 17 0 16.3658 0 15.5834Z" fill="#333333"/>
</svg>
